<svg width="24" height="24" viewBox="0 0 24 24" fill="none" xmlns="http://www.w3.org/2000/svg">
<g id="blob-verified">
<path id="Vector" d="M15.253 10.1108L11.8802 14.3121C11.5075 14.7764 10.8143 14.8142 10.3933 14.3932L9 12.9999" stroke="white" stroke-width="1.25" stroke-linecap="round"/>
<path id="Vector_2" d="M13.0584 4.29468C13.266 4.16106 13.3698 4.09426 13.454 4.05073C14.518 3.50063 15.8236 4.00271 16.2448 5.12396C16.2781 5.21267 16.3104 5.33183 16.375 5.57012C16.4048 5.68014 16.4197 5.73516 16.4364 5.78577C16.6382 6.39893 17.1235 6.87699 17.7396 7.06952C17.7905 7.08541 17.8457 7.09949 17.9562 7.12765L18.1062 7.16586C18.6252 7.29817 18.8847 7.36432 19.0742 7.45831C19.9357 7.88552 20.3712 8.86532 20.1111 9.79105C20.0539 9.99472 19.9291 10.2317 19.6796 10.7056L19.6075 10.8426C19.5544 10.9434 19.5278 10.9939 19.5055 11.0423C19.2356 11.6286 19.2653 12.3092 19.5853 12.8699C19.6117 12.9161 19.6425 12.9641 19.7042 13.0599C19.8378 13.2675 19.9046 13.3713 19.9482 13.4555C20.4983 14.5195 19.9962 15.8251 18.8749 16.2463C18.7862 16.2796 18.6671 16.3119 18.4288 16.3765C18.3188 16.4063 18.2637 16.4212 18.2131 16.4379C17.6 16.6397 17.1219 17.125 16.9294 17.7411C16.9135 17.792 16.8994 17.8472 16.8713 17.9577L16.833 18.1076C16.7007 18.6267 16.6346 18.8862 16.5406 19.0757C16.1134 19.9372 15.1336 20.3727 14.2079 20.1126C14.0042 20.0554 13.7672 19.9306 13.2933 19.681L13.1564 19.6089C13.0555 19.5558 13.0051 19.5293 12.9567 19.507C12.3703 19.2371 11.6897 19.2668 11.1291 19.5867C11.0828 19.6132 11.0349 19.644 10.939 19.7057C10.7314 19.8393 10.6276 19.9061 10.5434 19.9497C9.47945 20.4998 8.17384 19.9977 7.75261 18.8764C7.71929 18.7877 7.687 18.6686 7.62241 18.4303C7.59259 18.3202 7.57769 18.2652 7.56103 18.2146C7.35924 17.6015 6.87391 17.1234 6.25778 16.9309C6.20693 16.915 6.1517 16.9009 6.04124 16.8727L5.89128 16.8345C5.37226 16.7022 5.11275 16.6361 4.92322 16.5421C4.06175 16.1149 3.62624 15.1351 3.88632 14.2093C3.94354 14.0057 4.06832 13.7687 4.31787 13.2948L4.38997 13.1578C4.44308 13.057 4.46963 13.0065 4.49191 12.9581C4.76182 12.3718 4.73212 11.6912 4.41216 11.1305C4.38575 11.0843 4.35491 11.0363 4.29321 10.9405C4.15959 10.7329 4.09278 10.6291 4.04926 10.5449C3.49916 9.48091 4.00125 8.17531 5.1225 7.75409C5.21121 7.72076 5.33036 7.68847 5.56865 7.62388C5.67867 7.59407 5.73368 7.57916 5.7843 7.5625C6.39745 7.36071 6.87552 6.87537 7.06805 6.25925C7.08394 6.20839 7.09802 6.15317 7.12618 6.04271L7.1644 5.89275C7.29671 5.37372 7.36286 5.11422 7.45685 4.92469C7.88406 4.06323 8.86384 3.62771 9.78958 3.88779C9.99325 3.94501 10.2302 4.06979 10.7041 4.31934L10.8411 4.39144C10.9419 4.44455 10.9924 4.47109 11.0408 4.49337C11.6271 4.76328 12.3077 4.73358 12.8684 4.41363C12.9146 4.38721 12.9626 4.35637 13.0584 4.29468Z" stroke="white" stroke-width="1.25" stroke-linecap="round"/>
</g>
</svg>
