<svg width="71" height="48" viewBox="0 0 71 48" fill="none" xmlns="http://www.w3.org/2000/svg">
<path fill-rule="evenodd" clip-rule="evenodd" d="M35.7566 44.2952C47.5069 44.2952 58.1423 37.4139 67.6665 23.6476C58.1423 9.88128 47.5069 3 35.7566 3C24.0062 3 13.3708 9.88128 3.84668 23.6476C13.3708 37.4139 24.0062 44.2952 35.7566 44.2952Z" stroke="black" stroke-width="6" stroke-linecap="round" stroke-linejoin="round"/>
<path fill-rule="evenodd" clip-rule="evenodd" d="M35.7567 10.5082C36.4512 10.5082 37.1307 10.5607 37.7952 10.6659C37.5159 12.1641 37.6056 13.7078 38.0567 15.1636C38.5077 16.6193 39.3065 17.9433 40.384 19.0212C41.4614 20.099 42.7852 20.8983 44.2408 21.3498C45.6964 21.8014 47.2401 21.8916 48.7384 21.6128C49.1543 24.2662 48.7471 26.9833 47.5717 29.3981C46.3963 31.813 44.509 33.8096 42.1642 35.1192C39.8193 36.4287 37.1295 36.9883 34.4569 36.7224C31.7844 36.4565 29.2575 35.3781 27.2165 33.6323C25.1756 31.8864 23.7187 29.5571 23.042 26.958C22.3654 24.3589 22.5014 21.6149 23.4319 19.0955C24.3624 16.576 26.0425 14.4023 28.2462 12.8669C30.4498 11.3315 33.071 10.5083 35.7567 10.5082Z" stroke="black" stroke-width="6" stroke-linecap="round" stroke-linejoin="round"/>
</svg>
