<svg width="26" height="24" viewBox="0 0 26 24" fill="none" xmlns="http://www.w3.org/2000/svg">
<g id="Group">
<path id="Vector" d="M1.44541 22.4999L0.102125 21.9449C0.00614429 22.1957 -0.0229039 22.4688 0.0180422 22.7353C0.0589884 23.0018 0.168412 23.2519 0.334779 23.4592C0.501146 23.6666 0.718292 23.8234 0.963328 23.9133C1.20836 24.0032 1.47221 24.0228 1.72706 23.9699L1.44541 22.4999ZM8.24269 21.0959L8.92733 19.7745L8.46946 19.5195L7.96104 19.6245L8.24269 21.0959ZM3.79109 16.3755L5.13437 16.9305L5.36981 16.3095L5.08671 15.711L3.79109 16.3755ZM23.1112 12C23.1112 16.869 18.9904 21 13.6794 21V23.9999C20.3828 23.9999 26 18.729 26 12H23.1112ZM4.24896 12C4.24896 7.13098 8.37124 2.99999 13.6808 2.99999V0C6.97741 0 1.35874 5.27099 1.35874 12H4.24896ZM13.6808 2.99999C18.9904 2.99999 23.1112 7.13098 23.1112 12H26C26 5.27099 20.3842 0 13.6808 0V2.99999ZM13.6794 21C11.9389 21 10.3183 20.55 8.92733 19.7745L7.55806 22.4159C9.44131 23.462 11.5437 24.0063 13.6794 23.9999V21ZM1.72706 23.9699L8.52435 22.5659L7.96104 19.6245L1.16375 21.0285L1.72706 23.9714V23.9699ZM5.08671 15.711C4.53506 14.5578 4.24928 13.2876 4.24896 12H1.35874C1.35874 13.8 1.76606 15.507 2.49403 17.04L5.08671 15.711ZM2.44926 15.8205L0.102125 21.9464L2.7858 23.0534L5.13148 16.929L2.44781 15.8205H2.44926Z" fill="#3DCD58"/>
<path id="Vector_2" d="M8.66802 13.5C9.46573 13.5 10.1124 12.8284 10.1124 12C10.1124 11.1716 9.46573 10.5 8.66802 10.5C7.87031 10.5 7.22363 11.1716 7.22363 12C7.22363 12.8284 7.87031 13.5 8.66802 13.5Z" fill="#3DCD58"/>
<path id="Vector_3" d="M13.7227 13.5C14.5204 13.5 15.1671 12.8284 15.1671 12C15.1671 11.1716 14.5204 10.5 13.7227 10.5C12.925 10.5 12.2783 11.1716 12.2783 12C12.2783 12.8284 12.925 13.5 13.7227 13.5Z" fill="#3DCD58"/>
<path id="Vector_4" d="M18.7784 13.5C19.5761 13.5 20.2228 12.8284 20.2228 12C20.2228 11.1716 19.5761 10.5 18.7784 10.5C17.9807 10.5 17.334 11.1716 17.334 12C17.334 12.8284 17.9807 13.5 18.7784 13.5Z" fill="#3DCD58"/>
</g>
</svg>
