<svg width="23" height="23" viewBox="0 0 23 23" fill="none" xmlns="http://www.w3.org/2000/svg">
<g id="mynaui:tool">
<path id="Vector" d="M20.125 7.53226C20.125 7.12018 20.0713 6.71864 19.9707 6.33818C19.8825 6.00372 19.4705 5.92418 19.227 6.16855L17.5758 7.81976C17.4185 7.97708 17.2318 8.10186 17.0262 8.187C16.8207 8.27214 16.6004 8.31596 16.3779 8.31596C16.1554 8.31596 15.9351 8.27214 15.7296 8.187C15.5241 8.10186 15.3373 7.97708 15.18 7.81976C15.0227 7.66245 14.8979 7.47569 14.8128 7.27015C14.7276 7.06462 14.6838 6.84432 14.6838 6.62185C14.6838 6.39937 14.7276 6.17908 14.8128 5.97354C14.8979 5.768 15.0227 5.58124 15.18 5.42393L16.8312 3.77368C17.0756 3.52931 16.996 3.11722 16.6616 3.02906C15.8416 2.81096 14.9777 2.82099 14.163 3.05807C13.3483 3.29516 12.6139 3.75028 12.039 4.3743C11.4641 4.99832 11.0706 5.76753 10.9009 6.59887C10.7313 7.43021 10.792 8.2921 11.0764 9.09147C11.1445 9.28314 11.1061 9.49781 10.9633 9.6406L3.1625 17.4414C2.77917 17.8248 2.77917 18.4467 3.1625 18.8291L4.17067 19.8373C4.554 20.2206 5.17404 20.2206 5.55737 19.8373L13.3582 12.0364C13.502 11.8927 13.7166 11.8543 13.9073 11.9224C14.6102 12.1723 15.3628 12.2497 16.1018 12.1481C16.8407 12.0465 17.5445 11.7689 18.1539 11.3387C18.7632 10.9084 19.2603 10.3381 19.6034 9.6757C19.9464 9.0133 20.1253 8.27821 20.125 7.53226Z" stroke="white" stroke-linecap="round" stroke-linejoin="round"/>
</g>
</svg>
