<svg width="14" height="15" viewBox="0 0 14 15" fill="none" xmlns="http://www.w3.org/2000/svg">
<path id="Vector" d="M4.68838 14.9573C3.76115 14.9574 2.8547 14.6826 2.08368 14.1676C1.31267 13.6525 0.711724 12.9204 0.356866 12.0637C0.0020079 11.2071 -0.0908216 10.2644 0.090119 9.35504C0.27106 8.44564 0.717641 7.61033 1.37338 6.95477L7.33963 0.988521C7.97257 0.355582 8.83102 0 9.72613 0C10.6212 0 11.4797 0.355582 12.1126 0.988521C12.7456 1.62146 13.1011 2.47991 13.1011 3.37502C13.1011 4.27013 12.7456 5.12858 12.1126 5.76152L6.94138 10.932C6.54845 11.3073 6.02599 11.5167 5.48263 11.5167C4.93926 11.5167 4.41681 11.3073 4.02388 10.932C3.63753 10.5451 3.42066 10.0205 3.42094 9.47371C3.42122 8.9269 3.63863 8.40258 4.02538 8.01602L7.86988 4.17077C7.93906 4.09914 8.02182 4.042 8.11332 4.00269C8.20483 3.96339 8.30324 3.9427 8.40283 3.94183C8.50241 3.94097 8.60117 3.95994 8.69334 3.99765C8.78551 4.03537 8.86925 4.09105 8.93967 4.16147C9.01009 4.23189 9.06578 4.31563 9.10349 4.4078C9.1412 4.49998 9.16018 4.59874 9.15931 4.69832C9.15845 4.79791 9.13776 4.89632 9.09845 4.98782C9.05915 5.07933 9.00201 5.16209 8.93038 5.23127L5.08588 9.07652C4.98054 9.18199 4.92137 9.32496 4.92137 9.47402C4.92137 9.62308 4.98054 9.76605 5.08588 9.87152C5.193 9.97367 5.33535 10.0307 5.48338 10.0307C5.6314 10.0307 5.77375 9.97367 5.88088 9.87152L11.0521 4.70102C11.4031 4.34911 11.6002 3.8724 11.6002 3.3754C11.6002 2.8784 11.4031 2.40168 11.0521 2.04977C10.6949 1.70867 10.22 1.51834 9.72613 1.51834C9.23223 1.51834 8.75732 1.70867 8.40013 2.04977L2.43388 8.01602C2.13223 8.31072 1.89206 8.66235 1.72728 9.05054C1.5625 9.43873 1.47639 9.85575 1.47393 10.2775C1.47147 10.6992 1.55272 11.1172 1.71297 11.5072C1.87322 11.8973 2.10928 12.2517 2.40747 12.5499C2.70567 12.8481 3.06007 13.0842 3.45015 13.2444C3.84023 13.4047 4.25823 13.4859 4.67994 13.4835C5.10164 13.481 5.51867 13.3949 5.90686 13.2301C6.29504 13.0653 6.64667 12.8252 6.94138 12.5235L11.5824 7.88327C11.6516 7.81164 11.7343 7.7545 11.8258 7.71519C11.9173 7.67589 12.0157 7.6552 12.1153 7.65433C12.2149 7.65347 12.3137 7.67244 12.4058 7.71015C12.498 7.74787 12.5818 7.80356 12.6522 7.87397C12.7226 7.94439 12.7783 8.02813 12.816 8.12031C12.8537 8.21248 12.8727 8.31124 12.8718 8.41082C12.871 8.51041 12.8503 8.60882 12.811 8.70032C12.7716 8.79183 12.7145 8.87459 12.6429 8.94377L8.00263 13.5833C7.56848 14.0203 7.05191 14.3667 6.48286 14.6026C5.91382 14.8384 5.30436 14.959 4.68838 14.9573Z" fill="#9FA0A4"/>
</svg>
