<svg width="24" height="24" viewBox="0 0 24 24" fill="none" xmlns="http://www.w3.org/2000/svg">
<g id="settings">
<path id="Vector" d="M12.0106 21H11.7426C10.8557 21 10.1368 20.2811 10.1368 19.3942C10.1368 18.8934 9.90309 18.4212 9.50482 18.1174L8.46775 17.3265C7.88011 16.8783 7.08264 16.8213 6.43721 17.1813L6.40189 17.201C5.54481 17.679 4.46301 17.3893 3.95955 16.5469C3.43433 15.6681 3.73937 14.529 4.63351 14.0303L4.67948 14.0047C5.27044 13.6751 5.6367 13.0514 5.6367 12.3748V11.6257C5.6367 10.9491 5.27044 10.3254 4.67947 9.99579L4.63351 9.97015C3.73937 9.47146 3.43433 8.33241 3.95955 7.4536C4.46301 6.61122 5.54481 6.3215 6.40189 6.79952L6.53776 6.8753C7.13592 7.20891 7.8642 7.2089 8.46235 6.87527L9.18641 6.47141C9.77316 6.14414 10.1368 5.52492 10.1368 4.85307C10.1368 3.82965 10.9767 3 12.0001 3C13.0235 3 13.8634 3.82964 13.8634 4.85305C13.8634 5.52488 14.227 6.14409 14.8138 6.47136L15.5378 6.87522C16.1359 7.20885 16.8642 7.20887 17.4623 6.87526L17.5982 6.79952C18.4552 6.3215 19.537 6.61122 20.0405 7.4536C20.5657 8.33241 20.2607 9.47146 19.3665 9.97015L19.3205 9.99579C18.7296 10.3254 18.3633 10.9491 18.3633 11.6257V12.3748C18.3633 13.0514 18.7296 13.6751 19.3205 14.0047L19.3665 14.0304C20.2607 14.529 20.5657 15.6681 20.0405 16.5469C19.537 17.3893 18.4552 17.679 17.5982 17.201L17.4623 17.1252C16.8642 16.7916 16.136 16.7916 15.5378 17.1252L14.8138 17.529C14.2271 17.8562 13.8634 18.4754 13.8634 19.1472C13.8634 20.1705 13.0339 21 12.0106 21Z" stroke="white" stroke-width="1.25" stroke-linecap="round"/>
<path id="Vector_2" d="M15.0001 12C15.0001 13.6568 13.6569 15 12 15C10.3432 15 9 13.6568 9 12C9 10.3431 10.3432 9 12 9C13.6569 9 15.0001 10.3431 15.0001 12Z" stroke="white" stroke-width="1.25" stroke-linecap="round"/>
</g>
</svg>
